<svg xmlns="http://www.w3.org/2000/svg" viewBox="0 0 473.36 439.15"><defs><style>.cls-1{fill:#f4c9b0;}</style></defs><g id="Layer_2" data-name="Layer 2"><g id="Layer_1-2" data-name="Layer 1"><path class="cls-1" d="M0,0V439.15H473.36V0ZM468.64,233q-7.36,27.35-14.74,54.68l-14.3,44.17-9.36,26.72c-23.83,67.06-79.66,64-79.66,64-20.76-.17-92.93-1.7-133.1,7.15a390.36,390.36,0,0,1-76.43,8.68c-44.25,1.7-65.87-41.87-65.87-41.87S43.6,342.85,16.8,304.29s-14.3-57.7-4.34-86.81S22.16,144,22.16,144C24.46,91.87,63,82.42,93.65,71.7S144.2,47.19,172,23.7,223.6,1.42,223.6,1.42a445.9,445.9,0,0,1,73.82,3.65c11.8,1.57,23,3.54,33.47,5.76,1.31.37,3.26.93,5.6,1.67,62.11,19.79,119,80.13,132.73,151.11A179,179,0,0,1,468.64,233Z"/></g></g></svg>