<svg width="24" height="24" viewBox="0 0 24 24" fill="none" xmlns="http://www.w3.org/2000/svg">
<path fill-rule="evenodd" clip-rule="evenodd" d="M24 12C24 18.6274 18.6274 24 12 24C5.37258 24 0 18.6274 0 12C0 5.37258 5.37258 0 12 0C18.6274 0 24 5.37258 24 12ZM18.036 10.0979C18.036 13.9199 15.126 18.3299 9.80402 18.3299C8.17202 18.3299 6.64802 17.8499 5.38202 17.0219C5.61002 17.0519 5.83802 17.0639 6.07202 17.0639C7.42802 17.0639 8.67602 16.6019 9.66602 15.8279C8.40002 15.8039 7.33202 14.9699 6.96602 13.8179C7.14602 13.8539 7.32602 13.8719 7.51202 13.8719C7.77602 13.8719 8.03402 13.8359 8.27402 13.7699C6.94802 13.4999 5.95202 12.3359 5.95202 10.9319V10.8959C6.34202 11.1119 6.78602 11.2439 7.26002 11.2559C6.48002 10.7399 5.97002 9.85187 5.97002 8.84987C5.97002 8.32187 6.11402 7.82387 6.36002 7.39787C7.78802 9.14987 9.91802 10.3019 12.324 10.4219C12.27 10.2119 12.246 9.98987 12.246 9.76187C12.246 8.16587 13.542 6.86987 15.138 6.86987C15.972 6.86987 16.722 7.21787 17.25 7.78187C17.91 7.64987 18.528 7.40987 19.086 7.07987C18.87 7.75787 18.414 8.32187 17.814 8.68187C18.402 8.60987 18.96 8.45387 19.476 8.22587C19.086 8.80787 18.594 9.31787 18.03 9.72587C18.036 9.84587 18.036 9.97187 18.036 10.0979Z" fill="black"/>
</svg>
